<svg _ngcontent-ng-c451132501="" width="14" height="14" viewBox="0 0 14 14" fill="none" xmlns="http://www.w3.org/2000/svg" class="ml-4"><path _ngcontent-ng-c451132501="" d="M10.4984 5.73566L6.62351 1.86074C6.44481 1.67572 6.34594 1.42792 6.34817 1.17071C6.35041 0.913497 6.45358 0.667452 6.63546 0.485568C6.81734 0.303684 7.06339 0.200514 7.3206 0.198279C7.57781 0.196044 7.82561 0.294923 8.01063 0.473618L13.5601 6.02309C13.6515 6.11398 13.7241 6.22205 13.7736 6.34107C13.8231 6.4601 13.8485 6.58774 13.8485 6.71665C13.8485 6.84556 13.8231 6.9732 13.7736 7.09223C13.7241 7.21125 13.6515 7.31932 13.5601 7.41021L8.01063 12.9597C7.92014 13.0534 7.81189 13.1281 7.69221 13.1795C7.57252 13.2309 7.4438 13.258 7.31354 13.2591C7.18328 13.2603 7.05411 13.2354 6.93355 13.1861C6.81299 13.1368 6.70346 13.0639 6.61135 12.9718C6.51924 12.8797 6.4464 12.7702 6.39708 12.6496C6.34775 12.5291 6.32293 12.3999 6.32406 12.2697C6.32519 12.1394 6.35225 12.0107 6.40367 11.891C6.45508 11.7713 6.52981 11.6631 6.62351 11.5726L10.4984 7.69764H1.09464C0.834464 7.69764 0.584945 7.59429 0.400973 7.41032C0.217002 7.22634 0.113647 6.97683 0.113647 6.71665C0.113647 6.45648 0.217002 6.20696 0.400973 6.02298C0.584945 5.83901 0.834464 5.73566 1.09464 5.73566H10.4984V5.73566Z" fill="#fff"></path></svg>