<svg width="248" height="21" viewBox="0 0 248 21" fill="none" xmlns="http://www.w3.org/2000/svg">
<path fill-rule="evenodd" clip-rule="evenodd" d="M4.40577 16.2349H13.9424C15.0275 16.2349 15.9078 17.1194 15.9078 18.2114C15.9078 19.3027 15.0275 20.188 13.9424 20.188H2.44031C1.35442 20.188 0.474854 19.3027 0.474854 18.2114V2.7881C0.474854 1.69682 1.35442 0.811523 2.44031 0.811523C3.52546 0.811523 4.40577 1.69682 4.40577 2.7881V16.2349ZM60.2325 16.2349C57.0878 16.2349 54.5297 13.6623 54.5297 10.4998C54.5297 7.33801 57.0878 4.76467 60.2325 4.76467C63.3772 4.76467 65.9354 7.33801 65.9354 10.4998C65.9354 13.6623 63.3772 16.2349 60.2325 16.2349ZM32.2048 16.2349C29.0608 16.2349 26.5019 13.6623 26.5019 10.4998C26.5019 7.33801 29.0608 4.76467 32.2048 4.76467C35.3495 4.76467 37.9076 7.33801 37.9076 10.4998C37.9076 13.6623 35.3495 16.2349 32.2048 16.2349ZM60.2325 0.811523C55.5937 0.811523 51.711 4.12626 50.8013 8.52319H41.636C40.7263 4.12626 36.8436 0.811523 32.2048 0.811523C26.8928 0.811523 22.571 5.15772 22.571 10.4998C22.571 15.8418 26.8928 20.188 32.2048 20.188C36.8436 20.188 40.7263 16.874 41.636 12.4763H50.8013C51.711 16.874 55.5937 20.188 60.2325 20.188C65.5445 20.188 69.8663 15.8418 69.8663 10.4998C69.8663 5.15772 65.5445 0.811523 60.2325 0.811523ZM93.4388 2.78826C93.4388 1.69622 94.3191 0.811687 95.4042 0.811687C96.4894 0.811687 97.3697 1.69622 97.3697 2.78826V10.8597C97.3697 11.4004 97.149 11.9169 96.7605 12.2902L89.0922 19.6422C88.7119 20.0057 88.2239 20.1874 87.7359 20.1874C87.2329 20.1874 86.7298 19.9943 86.3465 19.6088L78.6782 11.8972C78.3092 11.5268 78.1022 11.024 78.1022 10.4999V2.78826C78.1022 1.69622 78.9825 0.811687 80.0676 0.811687C81.1535 0.811687 82.0331 1.69622 82.0331 2.78826V9.68128L87.7691 15.4489L93.4388 10.013V2.78826ZM105.606 2.78826C105.606 1.69622 106.486 0.811687 107.571 0.811687C108.656 0.811687 109.537 1.69622 109.537 2.78826V18.2109C109.537 19.3029 108.656 20.1874 107.571 20.1874C106.486 20.1874 105.606 19.3029 105.606 18.2109V2.78826Z" fill="#5968FA"/>
<path d="M139.904 14.3132L141.316 12.837C141.958 13.543 142.937 14.0725 143.964 14.0725C144.926 14.0725 145.6 13.4788 145.6 12.6605C145.6 11.2163 143.514 11.0398 142.006 10.1573C141.123 9.64378 140.417 8.87356 140.417 7.60592C140.417 5.60015 142.263 4.44482 144.124 4.44482C145.263 4.44482 146.322 4.71761 147.381 5.50387L146.258 7.10849C145.809 6.69129 145.055 6.37036 144.317 6.37036C143.498 6.37036 142.584 6.72338 142.584 7.58987C142.584 9.40309 147.767 8.84147 147.767 12.6284C147.767 14.6181 145.985 15.9981 143.964 15.9981C142.455 15.9981 141.059 15.3723 139.904 14.3132Z" fill="#5968FA"/>
<path d="M162.291 6.53082H157.718V8.85752H161.168V10.7831H157.718V13.9121H162.451V15.8376H155.551V4.60529H162.291V6.53082Z" fill="#5968FA"/>
<path d="M175.178 6.37036C173.044 6.37036 171.44 8.0873 171.44 10.2214C171.44 12.4037 173.108 14.0725 175.275 14.0725C176.302 14.0725 177.136 13.7195 177.778 13.206V10.7831H174.89V8.85752H179.944V13.8479C178.949 15.1155 177.28 15.9981 175.227 15.9981C171.728 15.9981 169.273 13.4467 169.273 10.2214C169.273 6.99616 171.696 4.44482 175.194 4.44482C176.863 4.44482 178.291 5.07062 179.302 6.04944L177.906 7.52569C177.232 6.85175 176.286 6.37036 175.178 6.37036Z" fill="#5968FA"/>
<path d="M192.859 15.9981C191.592 15.9981 190.356 15.613 189.49 14.8427C188.559 14.0083 188.046 12.8209 188.046 11.104V4.60529H190.212V11.2644C190.212 12.2914 190.485 12.9172 190.95 13.3504C191.431 13.8158 192.105 14.0725 192.859 14.0725C193.614 14.0725 194.287 13.8158 194.769 13.3504C195.234 12.9172 195.507 12.2914 195.507 11.2644V4.60529H197.673V11.104C197.673 12.8209 197.16 14.0083 196.229 14.8427C195.363 15.613 194.127 15.9981 192.859 15.9981Z" fill="#5968FA"/>
<path d="M209.05 10.8633H208.264V15.8376H206.097V4.60529H210.189C211.345 4.60529 212.083 4.92621 212.644 5.43969C213.254 6.01735 213.639 6.8357 213.639 7.73429C213.639 8.63287 213.254 9.45123 212.644 10.0289C212.339 10.3177 211.97 10.5424 211.521 10.6868L215.725 15.8376H213.045L209.05 10.8633ZM208.264 8.93775H210.061C210.687 8.93775 210.959 8.80938 211.152 8.60078C211.345 8.39218 211.473 8.07126 211.473 7.75033C211.473 7.41336 211.345 7.09244 211.152 6.88384C210.959 6.67524 210.687 6.53082 210.061 6.53082H208.264V8.93775Z" fill="#5968FA"/>
<path d="M223.506 10.2214C223.506 12.3395 225.078 14.0725 227.196 14.0725C229.314 14.0725 230.887 12.3395 230.887 10.2214C230.887 8.10335 229.314 6.37036 227.196 6.37036C225.078 6.37036 223.506 8.10335 223.506 10.2214ZM221.339 10.2214C221.339 7.02826 223.73 4.44482 227.196 4.44482C230.662 4.44482 233.053 7.02826 233.053 10.2214C233.053 13.4146 230.662 15.9981 227.196 15.9981C223.73 15.9981 221.339 13.4146 221.339 10.2214Z" fill="#5968FA"/>
<path d="M239.633 14.3132L241.045 12.837C241.687 13.543 242.665 14.0725 243.692 14.0725C244.655 14.0725 245.329 13.4788 245.329 12.6605C245.329 11.2163 243.243 11.0398 241.735 10.1573C240.852 9.64378 240.146 8.87356 240.146 7.60592C240.146 5.60015 241.991 4.44482 243.853 4.44482C244.992 4.44482 246.051 4.71761 247.11 5.50387L245.987 7.10849C245.538 6.69129 244.784 6.37036 244.045 6.37036C243.227 6.37036 242.312 6.72338 242.312 7.58987C242.312 9.40309 247.495 8.84147 247.495 12.6284C247.495 14.6181 245.714 15.9981 243.692 15.9981C242.184 15.9981 240.788 15.3723 239.633 14.3132Z" fill="#5968FA"/>
<circle cx="124.606" cy="10.4997" r="2.42206" fill="#D19DFC"/>
</svg>
